<svg width="26" height="24" viewBox="0 0 26 24" fill="none" xmlns="http://www.w3.org/2000/svg">
<path d="M19.8511 14.1898L19.8512 14.1898L19.8502 14.1795C19.8359 14.0388 19.892 13.8967 20.002 13.7919L20.0021 13.792L20.0116 13.7825C20.096 13.6975 20.2254 13.64 20.3912 13.64H21.964C21.9786 13.641 21.9884 13.644 21.9942 13.6464C21.9964 13.6473 21.9981 13.6482 21.9995 13.649V14.6328C21.9983 14.6335 21.9967 14.6344 21.9947 14.6353C21.9905 14.637 21.9837 14.6392 21.9736 14.64H20.4541C20.0984 14.64 19.8676 14.394 19.8511 14.1898Z" fill="#005ECC" stroke="#005ECC"/>
<path d="M17.8219 14.8031L17.8218 14.8031L17.824 14.8107C18.1723 15.9984 19.3595 16.69 20.538 16.69H21.4506C21.7742 16.69 21.9995 16.9384 21.9995 17.19V17.38C21.9995 19.1516 20.4735 20.64 18.5556 20.64H6.51386C4.59594 20.64 3.06989 19.1516 3.06989 17.38V10.65C3.06989 9.59362 3.60055 8.65056 4.43339 8.05725L4.4334 8.05726L4.43713 8.05456C5.0132 7.63612 5.72866 7.39001 6.51386 7.39001H18.5556C20.4735 7.39001 21.9995 8.8784 21.9995 10.65V11.09C21.9995 11.3416 21.7742 11.59 21.4506 11.59H20.3807C19.669 11.59 19.0089 11.8566 18.5246 12.3287C17.8776 12.9359 17.5594 13.8523 17.8219 14.8031Z" fill="#005ECC" stroke="#005ECC"/>
<path d="M8.58085 5H8.58023C8.57649 5 8.57347 4.99977 8.57107 4.99946L10.2572 3.38203C11.501 2.20613 13.5258 2.20599 14.7697 3.3816L16.4583 5.00978L8.58085 5Z" fill="#005ECC" stroke="#005ECC"/>
</svg>
