<svg width="85" height="32" viewBox="0 0 85 32" fill="none" xmlns="http://www.w3.org/2000/svg">
<path d="M3.57489 9V23.7906H0V9H3.57489ZM9.35071 17.464V23.7906H5.8192V12.6977H9.17741V14.7344H9.30011C9.54574 14.0555 9.96446 13.5234 10.5567 13.1381C11.1489 12.7483 11.8543 12.5532 12.6729 12.5532C13.4528 12.5532 14.1293 12.7289 14.7022 13.0803C15.2799 13.4272 15.7277 13.9134 16.0454 14.5393C16.3679 15.1602 16.5269 15.8873 16.5221 16.7202V23.7906H12.9906V17.4137C12.9954 16.7973 12.8388 16.3158 12.5211 15.9692C12.2081 15.6226 11.7725 15.4493 11.2139 15.4493C10.8432 15.4493 10.5159 15.5312 10.2318 15.6947C9.95251 15.8537 9.73577 16.0824 9.58179 16.3808C9.43259 16.6794 9.35549 17.0406 9.35071 17.464ZM29.0721 12.6977L25.2661 23.7906H21.2218L17.423 12.6977H21.1423L23.1862 20.3386H23.3017L25.3528 12.6977H29.0721ZM35.2541 24C34.0937 24 33.0923 23.7713 32.2497 23.3139C31.412 22.8518 30.7668 22.1946 30.3142 21.3424C29.8666 20.4854 29.6427 19.4671 29.6427 18.2874C29.6427 17.1415 29.869 16.1401 30.3216 15.2832C30.7742 14.4214 31.412 13.7521 32.2353 13.2754C33.0586 12.7939 34.0288 12.5532 35.1457 12.5532C35.9354 12.5532 36.6575 12.6759 37.3123 12.9216C37.9671 13.167 38.5328 13.5305 39.0095 14.012C39.4862 14.4935 39.8569 15.0881 40.1217 15.7959C40.3864 16.4989 40.5189 17.3053 40.5189 18.2153V19.0963H30.8775V17.0453H37.233C37.228 16.6698 37.139 16.3352 36.9657 16.0413C36.7923 15.7477 36.5541 15.519 36.2507 15.3553C35.9523 15.1867 35.6079 15.1025 35.218 15.1025C34.8232 15.1025 34.4692 15.1917 34.1563 15.3698C33.8433 15.5431 33.5955 15.7814 33.4124 16.0848C33.2296 16.3832 33.1331 16.7226 33.1236 17.1031V19.1902C33.1236 19.6428 33.2126 20.04 33.3907 20.3818C33.569 20.7189 33.8218 20.9812 34.1491 21.1691C34.4766 21.3567 34.8664 21.4508 35.319 21.4508C35.632 21.4508 35.916 21.4073 36.1712 21.3207C36.4264 21.234 36.6455 21.1066 36.8284 20.938C37.0115 20.7695 37.1487 20.5623 37.2402 20.3169L40.4828 20.4107C40.348 21.1378 40.052 21.7709 39.5946 22.3101C39.142 22.8446 38.5474 23.2609 37.8107 23.5596C37.074 23.8532 36.2218 24 35.2541 24ZM52.0073 16.0848L48.7647 16.1714C48.7308 15.9403 48.6394 15.7358 48.4902 15.5575C48.341 15.3746 48.1459 15.2326 47.9051 15.1314C47.6692 15.0256 47.3947 14.9726 47.0818 14.9726C46.6726 14.9726 46.3236 15.0545 46.0348 15.2182C45.7507 15.3818 45.611 15.6033 45.6158 15.8826C45.611 16.0991 45.6977 16.287 45.8758 16.4459C46.0589 16.6047 46.3838 16.7324 46.8507 16.8286L48.9886 17.233C50.0958 17.4449 50.9191 17.7963 51.4583 18.2874C52.0023 18.7786 52.2769 19.4286 52.2816 20.2374C52.2769 20.9982 52.0506 21.6601 51.6027 22.2235C51.1599 22.7868 50.5533 23.2249 49.7828 23.5378C49.0125 23.846 48.1314 24 47.1398 24C45.5557 24 44.3062 23.6751 43.3915 23.0251C42.4815 22.3703 41.9616 21.494 41.8315 20.3964L45.3198 20.3095C45.3967 20.7141 45.5965 21.0223 45.9192 21.234C46.2417 21.4458 46.6533 21.5518 47.1541 21.5518C47.6067 21.5518 47.975 21.4675 48.2591 21.299C48.5432 21.1304 48.6876 20.9065 48.6924 20.6274C48.6876 20.377 48.5768 20.1772 48.3601 20.028C48.1435 19.8739 47.8041 19.7535 47.3419 19.6669L45.4065 19.2985C44.2943 19.0964 43.466 18.7232 42.922 18.1792C42.3779 17.6302 42.1084 16.9322 42.1132 16.0848C42.1084 15.3433 42.3058 14.7102 42.7054 14.1853C43.105 13.6559 43.6732 13.2513 44.4098 12.9722C45.1463 12.6929 46.0154 12.5532 47.0168 12.5532C48.519 12.5532 49.7035 12.8686 50.5701 13.4993C51.4368 14.1252 51.9157 14.9869 52.0073 16.0848ZM60.2818 12.6977V15.2975H53.2837V12.6977H60.2818ZM54.7499 10.0401H58.2814V20.3023C58.2814 20.5191 58.315 20.6948 58.3824 20.8296C58.4547 20.9595 58.5583 21.0536 58.6929 21.1113C58.8278 21.1643 58.9892 21.1906 59.1768 21.1906C59.3117 21.1906 59.4537 21.1786 59.6029 21.1545C59.7571 21.1257 59.8726 21.1016 59.9497 21.0824L60.484 23.6317C60.3155 23.6799 60.0772 23.74 59.769 23.8124C59.4659 23.8845 59.1023 23.9303 58.6786 23.9494C57.8505 23.988 57.1403 23.8916 56.5481 23.6605C55.9606 23.4247 55.5106 23.0588 55.1977 22.5629C54.8895 22.0669 54.7401 21.4434 54.7499 20.6924V10.0401ZM70.0278 9V23.7906H66.4531V9H70.0278ZM71.7883 11.9032V9H84.2894V11.9032H79.8047V23.7906H76.2804V11.9032H71.7883Z" fill="url(#paint0_linear_1_12096)"/>
<defs>
<linearGradient id="paint0_linear_1_12096" x1="-3.75059e-07" y1="17" x2="84" y2="17" gradientUnits="userSpaceOnUse">
<stop stop-color="#69A9F9"/>
<stop offset="1" stop-color="#1748CC"/>
</linearGradient>
</defs>
</svg>
