<svg width="32" height="32" viewBox="0 0 32 32" fill="none" xmlns="http://www.w3.org/2000/svg">
<path d="M15.7282 2.99976L19.4047 9.37895H12.0517L15.7282 2.99976Z" fill="#10BA01"/>
<path d="M15.7227 16.5829L12.0462 10.2037H19.3992L15.7227 16.5829Z" fill="#FF1619"/>
<path d="M15.7472 16.5391L19.4238 10.1599L23.1003 16.5391H15.7472Z" fill="#D00002"/>
<path d="M15.7472 16.5175H23.1003L19.4238 22.8967L15.7472 16.5175Z" fill="#AA0E0F"/>
<path d="M4.67645 23.4392L8.35294 29.8183H0.999939L4.67645 23.4392Z" fill="#C2E1FE"/>
<path d="M12.0406 23.4392L15.7171 29.8183H8.36403L12.0406 23.4392Z" fill="#1D91FE"/>
<path d="M19.4048 23.4392L23.0813 29.8183H15.7283L19.4048 23.4392Z" fill="#073DFF"/>
<path d="M26.769 23.4392L30.4456 29.8183H23.0926L26.769 23.4392Z" fill="#0C2683"/>
<path d="M23.087 29.8183L19.4104 23.4392H26.7634L23.087 29.8183Z" fill="#0329BA"/>
<path d="M15.7227 29.8183L12.0462 23.4392H19.3992L15.7227 29.8183Z" fill="#0075FF"/>
<path d="M8.35856 29.8183L4.68207 23.4392H12.0351L8.35856 29.8183Z" fill="#73B8FB"/>
<path d="M15.7171 16.5175L12.0406 22.8967L8.36403 16.5175H15.7171Z" fill="#FF908F"/>
<path d="M15.7171 16.5391H8.36403L12.0406 10.1599L15.7171 16.5391Z" fill="#FF6665"/>
</svg>
